<?xml version="1.0" encoding="UTF-8" standalone="no"?>
<!DOCTYPE svg PUBLIC "-//W3C//DTD SVG 1.1//EN" "http://www.w3.org/Graphics/SVG/1.1/DTD/svg11.dtd">
<!-- 由 Microsoft Visio, SVG Export 生成 绘图1.svg Page-1 -->
<svg xmlns="http://www.w3.org/2000/svg" xmlns:xlink="http://www.w3.org/1999/xlink" xmlns:ev="http://www.w3.org/2001/xml-events"
		xmlns:v="http://schemas.microsoft.com/visio/2003/SVGExtensions/" width="6.41243in" height="3.41148in"
		viewBox="0 0 461.695 245.627" xml:space="preserve" color-interpolation-filters="sRGB" class="st8">
	<v:documentProperties v:langID="2052" v:metric="true" v:viewMarkup="false">
		<v:userDefs>
			<v:ud v:nameU="msvNoAutoConnect" v:val="VT0(1):26"/>
		</v:userDefs>
	</v:documentProperties>

	<style type="text/css">
	<![CDATA[
		.st1 {stroke:#ffffff;stroke-linecap:round;stroke-linejoin:round;stroke-width:1.5}
		.st2 {marker-end:url(#mrkr10-9);stroke:#ffffff;stroke-linecap:round;stroke-linejoin:round;stroke-width:1.5}
		.st3 {fill:#ffffff;fill-opacity:1;stroke:#ffffff;stroke-opacity:1;stroke-width:0.45454545454545}
		.st4 {marker-end:url(#mrkr20-23);stroke:#ffffff;stroke-linecap:round;stroke-linejoin:round;stroke-width:1.5}
		.st5 {fill:#ffffff}
		.st6 {stroke:#ffffff;stroke-linecap:butt;stroke-width:1.47402}
		.st7 {fill:#ffffff;stroke:#ffffff;stroke-linecap:butt;stroke-width:2.21102}
		.st8 {fill:none;fill-rule:evenodd;font-size:12px;overflow:visible;stroke-linecap:square;stroke-miterlimit:3}
	]]>
	</style>

	<defs id="Markers">
		<g id="lend10">
			<path
					d="M 0 0.75 C -0.414214 0.75 -0.75 0.414214 -0.75 0 -0.75 -0.414214 -0.414214 -0.75 0 -0.75 0.414214 -0.75 0.75 -0.414214 0.75 0 0.75 0.414214 0.414214 0.75 0 0.75 Z "
					style="stroke:none"/>
		</g>
		<marker id="mrkr10-9" class="st3" v:arrowType="10" v:arrowSize="1" v:setback="1.65" refX="-1.65" orient="auto"
				markerUnits="strokeWidth" overflow="visible">
			<use xlink:href="#lend10" transform="scale(-2.2,-2.2) "/>
		</marker>
		<g id="lend20">
			<path
					d="M 0 0.75 C -0.414214 0.75 -0.75 0.414214 -0.75 0 -0.75 -0.414214 -0.414214 -0.75 0 -0.75 0.414214 -0.75 0.75 -0.414214 0.75 0 0.75 0.414214 0.414214 0.75 0 0.75 Z "
					style="stroke-linecap:round;stroke-linejoin:round;fill:none"/>
		</g>
		<marker id="mrkr20-23" class="st3" v:arrowType="20" v:arrowSize="1" v:setback="1.65" refX="-1.65" orient="auto"
				markerUnits="strokeWidth" overflow="visible">
			<use xlink:href="#lend20" transform="scale(-2.2,-2.2) "/>
		</marker>
	</defs>
	<g v:mID="0" v:index="1" v:groupContext="foregroundPage">
		<v:userDefs>
			<v:ud v:nameU="ResistorCount" v:prompt="" v:val="VT0(4):26"/>
			<v:ud v:nameU="ISCount" v:prompt="" v:val="VT0(9):26"/>
		</v:userDefs>
		<title>页-1</title>
		<v:pageProperties v:drawingScale="0.0393701" v:pageScale="0.0393701" v:drawingUnits="24" v:shadowOffsetX="8.50394"
				v:shadowOffsetY="-8.50394"/>
		<v:layer v:name="连接线" v:index="0"/>
		<v:layer v:name="电气" v:index="1"/>
		<g id="shape18-1" v:mID="18" v:groupContext="shape" transform="translate(-206.991,102.24) rotate(-90)">
			<title>工作表.18</title>
			<path d="M0 245.63 L56.7 245.63" class="st1"/>
		</g>
		<g id="shape19-4" v:mID="19" v:groupContext="shape" transform="translate(38.6362,-143.39)">
			<title>工作表.19</title>
			<path d="M58.53 245.63 L58.53 188.93 L2.48 188.93" class="st2"/>
		</g>
		<g id="shape20-10" v:mID="20" v:groupContext="shape" transform="translate(284.591,137.67) rotate(90)">
			<title>工作表.20</title>
			<path d="M0 245.63 L63.78 245.63" class="st1"/>
		</g>
		<g id="shape21-13" v:mID="21" v:groupContext="shape" transform="translate(38.964,-44.1773)">
			<title>工作表.21</title>
			<path d="M58.2 183.26 L58.2 245.63 L2.47 245.63" class="st2"/>
		</g>
		<g id="shape23-18" v:mID="23" v:groupContext="shape" transform="translate(-206.991,45.5441) rotate(-90)">
			<title>工作表.23</title>
			<path d="M0 245.63 L20.81 245.63" class="st4"/>
		</g>
		<g id="shape24-24" v:mID="24" v:groupContext="shape" transform="translate(284.591,201.45) rotate(90)">
			<title>工作表.24</title>
			<path d="M0 245.63 L18.78 245.63" class="st4"/>
		</g>
		<g id="group30-29" transform="translate(412.15,78.1425) rotate(90)" v:mID="30" v:groupContext="group" v:layerMember="1">
			<v:custProps>
				<v:cp v:nameU="Label" v:lbl="标签" v:type="0" v:format="@" v:sortKey="" v:invis="false" v:ask="false" v:langID="2052"
						v:val="VT4()"/>
				<v:cp v:nameU="Slider_Position" v:lbl="滑块位置 (0-1)" v:type="2" v:langID="2052" v:val="VT0(0.5):26"/>
			</v:custProps>
			<v:userDefs>
				<v:ud v:nameU="Form" v:val="VT0(1):5"/>
				<v:ud v:nameU="SubType" v:val="VT0(0):26"/>
				<v:ud v:nameU="visDescription" v:val="VT4(Represents a fixed or variable resistor.)"/>
				<v:ud v:nameU="visVersion" v:val="VT0(15):26"/>
				<v:ud v:nameU="Label" v:prompt="" v:val="VT4()"/>
				<v:ud v:nameU="SolSH" v:prompt="" v:val="VT4({2EE3C7D2-E26E-4B72-9E9C-5170DDBF261A})"/>
				<v:ud v:nameU="Label" v:prompt="" v:val="VT4(R2)"/>
			</v:userDefs>
			<title>电阻器.30</title>
			<g id="shape31-30" v:mID="31" v:groupContext="shape" v:layerMember="1" transform="translate(-2.79265,2.58283)">
				<title>工作表.31</title>
			</g>
			<g id="shape32-32" v:mID="32" v:groupContext="shape" v:layerMember="1">
				<title>工作表.32</title>
				<path d="M8.84 229.41 L8.84 224.99 L28.01 224.99 L28.01 229.41 L5.9 229.41 L5.9 222.04 L30.95 222.04 L30.95 232.36
							 L5.9 232.36 L5.9 229.41 L8.84 229.41 Z" class="st5"/>
				<path d="M36.85 227.2 L29.48 227.2" class="st6"/>
				<path d="M7.37 227.2 L0 227.2" class="st6"/>
			</g>
		</g>
		<g id="shape37-36" v:mID="37" v:groupContext="shape" transform="translate(430.665,116.005) rotate(90.236)">
			<title>工作表.37</title>
			<path d="M0 245.63 L22.37 245.63" class="st1"/>
		</g>
		<g id="shape38-39" v:mID="38" v:groupContext="shape" transform="translate(430.575,171.998) rotate(90)">
			<title>工作表.38</title>
			<path d="M0 245.63 L49.65 245.63" class="st4"/>
		</g>
		<g id="shape39-44" v:mID="39" v:groupContext="shape" transform="translate(-60.5865,78.1425) rotate(-90)">
			<title>工作表.39</title>
			<path d="M0 245.63 L54.17 245.63" class="st4"/>
		</g>
		<g id="group46-49" transform="translate(166.523,-72.5238)" v:mID="46" v:groupContext="group" v:layerMember="1">
			<v:custProps>
				<v:cp v:nameU="Label" v:lbl="Label" v:prompt="" v:type="0" v:format="@" v:sortKey="" v:invis="false" v:ask="false"
						v:langID="2052" v:cal="0" v:val="VT4()"/>
			</v:custProps>
			<v:userDefs>
				<v:ud v:nameU="Type" v:val="VT0(0):26"/>
				<v:ud v:nameU="visVersion" v:val="VT0(15):26"/>
				<v:ud v:nameU="visDescription" v:val="VT4(Represents an ideal current or voltage source.)"/>
				<v:ud v:nameU="Label" v:prompt="" v:val="VT4()"/>
				<v:ud v:nameU="SolSH" v:prompt="" v:val="VT4({2EE3C7D2-E26E-4B72-9E9C-5170DDBF261A})"/>
				<v:ud v:nameU="Label" v:prompt="" v:val="VT4(SRC3)"/>
			</v:userDefs>
			<title>理想电源.46</title>
			<g id="shape47-50" v:mID="47" v:groupContext="shape" v:layerMember="1" transform="translate(6.86994E-06,2.84217E-14)">
				<title>工作表.47</title>
				<path d="M18.43 210.99 C27.37 210.99 34.64 218.26 34.64 227.2 C34.64 236.14 27.37 243.42 18.43 243.42 C9.48 243.42
							 2.21 236.14 2.21 227.2 C2.21 218.26 9.48 210.99 18.43 210.99 ZM18.43 208.78 C8.25 208.78 0 217.03 0
							 227.2 C0 237.38 8.25 245.63 18.43 245.63 C28.6 245.63 36.85 237.38 36.85 227.2 C36.85 217.03 28.6 208.78
							 18.43 208.78 Z" class="st7"/>
			</g>
			<g id="shape48-52" v:mID="48" v:groupContext="shape" v:layerMember="1" transform="translate(0,-1.19487E-05)">
				<title>工作表.48</title>
				<path d="M36.85 227.2 L0 227.2" class="st6"/>
			</g>
		</g>
		<g id="group49-55" transform="translate(20.211,-107.642)" v:mID="49" v:groupContext="group" v:layerMember="1">
			<v:custProps>
				<v:cp v:nameU="Label" v:lbl="Label" v:prompt="" v:type="0" v:format="@" v:sortKey="" v:invis="false" v:ask="false"
						v:langID="2052" v:cal="0" v:val="VT4()"/>
			</v:custProps>
			<v:userDefs>
				<v:ud v:nameU="Type" v:val="VT0(0):26"/>
				<v:ud v:nameU="visVersion" v:val="VT0(15):26"/>
				<v:ud v:nameU="visDescription" v:val="VT4(Represents an ideal current or voltage source.)"/>
				<v:ud v:nameU="Label" v:prompt="" v:val="VT4()"/>
				<v:ud v:nameU="SolSH" v:prompt="" v:val="VT4({2EE3C7D2-E26E-4B72-9E9C-5170DDBF261A})"/>
				<v:ud v:nameU="Type" v:prompt="" v:val="VT0(1):5"/>
				<v:ud v:nameU="Label" v:prompt="" v:val="VT4(SRC4)"/>
			</v:userDefs>
			<title>理想电源</title>
			<g id="shape50-56" v:mID="50" v:groupContext="shape" v:layerMember="1" transform="translate(6.86994E-06,2.84217E-14)">
				<title>工作表.50</title>
				<path d="M18.43 210.99 C27.37 210.99 34.64 218.26 34.64 227.2 C34.64 236.14 27.37 243.42 18.43 243.42 C9.48 243.42
							 2.21 236.14 2.21 227.2 C2.21 218.26 9.48 210.99 18.43 210.99 ZM18.43 208.78 C8.25 208.78 0 217.03 0
							 227.2 C0 237.38 8.25 245.63 18.43 245.63 C28.6 245.63 36.85 237.38 36.85 227.2 C36.85 217.03 28.6 208.78
							 18.43 208.78 Z" class="st7"/>
			</g>
			<g id="shape51-58" v:mID="51" v:groupContext="shape" v:layerMember="1" transform="translate(0,-1.19487E-05)">
				<title>工作表.51</title>
				<path d="M18.43 245.63 L18.43 208.78" class="st6"/>
			</g>
		</g>
		<g id="group52-61" transform="translate(324.276,102.237) rotate(90)" v:mID="52" v:groupContext="group" v:layerMember="1">
			<v:custProps>
				<v:cp v:nameU="Label" v:lbl="标签" v:type="0" v:format="@" v:sortKey="" v:invis="false" v:ask="false" v:langID="2052"
						v:val="VT4()"/>
				<v:cp v:nameU="Slider_Position" v:lbl="滑块位置 (0-1)" v:type="2" v:langID="2052" v:val="VT0(0.5):26"/>
			</v:custProps>
			<v:userDefs>
				<v:ud v:nameU="Form" v:val="VT0(1):5"/>
				<v:ud v:nameU="SubType" v:val="VT0(0):26"/>
				<v:ud v:nameU="visDescription" v:val="VT4(Represents a fixed or variable resistor.)"/>
				<v:ud v:nameU="visVersion" v:val="VT0(15):26"/>
				<v:ud v:nameU="Label" v:prompt="" v:val="VT4()"/>
				<v:ud v:nameU="SolSH" v:prompt="" v:val="VT4({2EE3C7D2-E26E-4B72-9E9C-5170DDBF261A})"/>
				<v:ud v:nameU="Label" v:prompt="" v:val="VT4(R3)"/>
			</v:userDefs>
			<title>电阻器</title>
			<g id="shape53-62" v:mID="53" v:groupContext="shape" v:layerMember="1" transform="translate(-2.79265,2.58283)">
				<title>工作表.53</title>
			</g>
			<g id="shape54-64" v:mID="54" v:groupContext="shape" v:layerMember="1">
				<title>工作表.54</title>
				<path d="M8.84 229.41 L8.84 224.99 L28.01 224.99 L28.01 229.41 L5.9 229.41 L5.9 222.04 L30.95 222.04 L30.95 232.36
							 L5.9 232.36 L5.9 229.41 L8.84 229.41 Z" class="st5"/>
				<path d="M36.85 227.2 L29.48 227.2" class="st6"/>
				<path d="M7.37 227.2 L0 227.2" class="st6"/>
			</g>
		</g>
		<g id="group55-68" transform="translate(254.397,-72.5238)" v:mID="55" v:groupContext="group" v:layerMember="1">
			<v:custProps>
				<v:cp v:nameU="Label" v:lbl="Label" v:prompt="" v:type="0" v:format="@" v:sortKey="" v:invis="false" v:ask="false"
						v:langID="2052" v:cal="0" v:val="VT4()"/>
			</v:custProps>
			<v:userDefs>
				<v:ud v:nameU="Type" v:val="VT0(0):26"/>
				<v:ud v:nameU="visVersion" v:val="VT0(15):26"/>
				<v:ud v:nameU="visDescription" v:val="VT4(Represents an ideal current or voltage source.)"/>
				<v:ud v:nameU="Label" v:prompt="" v:val="VT4()"/>
				<v:ud v:nameU="SolSH" v:prompt="" v:val="VT4({2EE3C7D2-E26E-4B72-9E9C-5170DDBF261A})"/>
				<v:ud v:nameU="Label" v:prompt="" v:val="VT4(SRC5)"/>
			</v:userDefs>
			<title>理想电源.55</title>
			<g id="shape56-69" v:mID="56" v:groupContext="shape" v:layerMember="1" transform="translate(6.86994E-06,2.84217E-14)">
				<title>工作表.56</title>
				<path d="M18.43 210.99 C27.37 210.99 34.64 218.26 34.64 227.2 C34.64 236.14 27.37 243.42 18.43 243.42 C9.48 243.42
							 2.21 236.14 2.21 227.2 C2.21 218.26 9.48 210.99 18.43 210.99 ZM18.43 208.78 C8.25 208.78 0 217.03 0
							 227.2 C0 237.38 8.25 245.63 18.43 245.63 C28.6 245.63 36.85 237.38 36.85 227.2 C36.85 217.03 28.6 208.78
							 18.43 208.78 Z" class="st7"/>
			</g>
			<g id="shape57-71" v:mID="57" v:groupContext="shape" v:layerMember="1" transform="translate(0,-1.19487E-05)">
				<title>工作表.57</title>
				<path d="M36.85 227.2 L0 227.2" class="st6"/>
			</g>
		</g>
		<g id="group58-74" transform="translate(254.397,-130.634)" v:mID="58" v:groupContext="group" v:layerMember="1">
			<v:custProps>
				<v:cp v:nameU="Label" v:lbl="Label" v:prompt="" v:type="0" v:format="@" v:sortKey="" v:invis="false" v:ask="false"
						v:langID="2052" v:cal="0" v:val="VT4()"/>
			</v:custProps>
			<v:userDefs>
				<v:ud v:nameU="Type" v:val="VT0(0):26"/>
				<v:ud v:nameU="visVersion" v:val="VT0(15):26"/>
				<v:ud v:nameU="visDescription" v:val="VT4(Represents an ideal current or voltage source.)"/>
				<v:ud v:nameU="Label" v:prompt="" v:val="VT4()"/>
				<v:ud v:nameU="SolSH" v:prompt="" v:val="VT4({2EE3C7D2-E26E-4B72-9E9C-5170DDBF261A})"/>
				<v:ud v:nameU="Type" v:prompt="" v:val="VT0(1):5"/>
				<v:ud v:nameU="Label" v:prompt="" v:val="VT4(SRC6)"/>
			</v:userDefs>
			<title>理想电源.58</title>
			<g id="shape59-75" v:mID="59" v:groupContext="shape" v:layerMember="1" transform="translate(6.86994E-06,2.84217E-14)">
				<title>工作表.59</title>
				<path d="M18.43 210.99 C27.37 210.99 34.64 218.26 34.64 227.2 C34.64 236.14 27.37 243.42 18.43 243.42 C9.48 243.42
							 2.21 236.14 2.21 227.2 C2.21 218.26 9.48 210.99 18.43 210.99 ZM18.43 208.78 C8.25 208.78 0 217.03 0
							 227.2 C0 237.38 8.25 245.63 18.43 245.63 C28.6 245.63 36.85 237.38 36.85 227.2 C36.85 217.03 28.6 208.78
							 18.43 208.78 Z" class="st7"/>
			</g>
			<g id="shape60-77" v:mID="60" v:groupContext="shape" v:layerMember="1" transform="translate(0,-1.19487E-05)">
				<title>工作表.60</title>
				<path d="M18.43 245.63 L18.43 208.78" class="st6"/>
			</g>
		</g>
		<g id="shape61-80" v:mID="61" v:groupContext="shape" transform="translate(518.449,113.887) rotate(90)">
			<title>工作表.61</title>
			<path d="M0 245.63 L23.47 245.63" class="st1"/>
		</g>
		<g id="shape62-83" v:mID="62" v:groupContext="shape" transform="translate(272.822,-166.379)">
			<title>工作表.62</title>
			<path d="M0 245.63 L0 192.08 L0 190.4" class="st4"/>
		</g>
		<g id="shape63-88" v:mID="63" v:groupContext="shape" transform="translate(441.484,-163.232)">
			<title>工作表.63</title>
		</g>
		<g id="shape64-89" v:mID="64" v:groupContext="shape" transform="translate(518.449,171.998) rotate(90)">
			<title>工作表.64</title>
			<path d="M0 245.63 L49.65 245.63" class="st4"/>
		</g>
		<g id="group70-94" transform="translate(336.602,-108.269)" v:mID="70" v:groupContext="group" v:layerMember="1">
			<v:custProps>
				<v:cp v:nameU="Label" v:lbl="Label" v:prompt="" v:type="0" v:format="@" v:sortKey="" v:invis="false" v:ask="false"
						v:langID="2052" v:cal="0" v:val="VT4()"/>
			</v:custProps>
			<v:userDefs>
				<v:ud v:nameU="Type" v:val="VT0(0):26"/>
				<v:ud v:nameU="visVersion" v:val="VT0(15):26"/>
				<v:ud v:nameU="visDescription" v:val="VT4(Represents an ideal current or voltage source.)"/>
				<v:ud v:nameU="Label" v:prompt="" v:val="VT4()"/>
				<v:ud v:nameU="SolSH" v:prompt="" v:val="VT4({2EE3C7D2-E26E-4B72-9E9C-5170DDBF261A})"/>
				<v:ud v:nameU="Type" v:prompt="" v:val="VT0(1):5"/>
				<v:ud v:nameU="Label" v:prompt="" v:val="VT4(SRC6)"/>
			</v:userDefs>
			<title>理想电源.70</title>
			<g id="shape71-95" v:mID="71" v:groupContext="shape" v:layerMember="1" transform="translate(6.86994E-06,2.84217E-14)">
				<title>工作表.71</title>
				<path d="M18.43 210.99 C27.37 210.99 34.64 218.26 34.64 227.2 C34.64 236.14 27.37 243.42 18.43 243.42 C9.48 243.42
							 2.21 236.14 2.21 227.2 C2.21 218.26 9.48 210.99 18.43 210.99 ZM18.43 208.78 C8.25 208.78 0 217.03 0
							 227.2 C0 237.38 8.25 245.63 18.43 245.63 C28.6 245.63 36.85 237.38 36.85 227.2 C36.85 217.03 28.6 208.78
							 18.43 208.78 Z" class="st7"/>
			</g>
			<g id="shape72-97" v:mID="72" v:groupContext="shape" v:layerMember="1" transform="translate(0,-1.19487E-05)">
				<title>工作表.72</title>
				<path d="M18.43 245.63 L18.43 208.78" class="st6"/>
			</g>
		</g>
		<g id="shape74-100" v:mID="74" v:groupContext="shape" transform="translate(355.027,-166.379)">
			<title>工作表.74</title>
			<path d="M0 245.63 L0 192.08 L0 190.4" class="st4"/>
		</g>
		<g id="shape75-105" v:mID="75" v:groupContext="shape" transform="translate(600.654,171.998) rotate(90)">
			<title>工作表.75</title>
			<path d="M0 245.63 L49.65 245.63" class="st4"/>
		</g>
		<g id="shape76-110" v:mID="76" v:groupContext="shape" transform="translate(600.654,136.253) rotate(90)">
			<title>工作表.76</title>
			<path d="M0 245.63 L35.74 245.63" class="st1"/>
		</g>
		<g id="shape77-113" v:mID="77" v:groupContext="shape" transform="translate(109.4,101.613) rotate(-90)">
			<title>工作表.77</title>
			<path d="M0 245.63 L22.37 245.63" class="st1"/>
		</g>
		<g id="group78-116" transform="translate(404.633,-108.269)" v:mID="78" v:groupContext="group" v:layerMember="1">
			<v:custProps>
				<v:cp v:nameU="Label" v:lbl="Label" v:prompt="" v:type="0" v:format="@" v:sortKey="" v:invis="false" v:ask="false"
						v:langID="2052" v:cal="0" v:val="VT4()"/>
			</v:custProps>
			<v:userDefs>
				<v:ud v:nameU="Type" v:val="VT0(0):26"/>
				<v:ud v:nameU="visVersion" v:val="VT0(15):26"/>
				<v:ud v:nameU="visDescription" v:val="VT4(Represents an ideal current or voltage source.)"/>
				<v:ud v:nameU="Label" v:prompt="" v:val="VT4()"/>
				<v:ud v:nameU="SolSH" v:prompt="" v:val="VT4({2EE3C7D2-E26E-4B72-9E9C-5170DDBF261A})"/>
				<v:ud v:nameU="Label" v:prompt="" v:val="VT4(SRC8)"/>
			</v:userDefs>
			<title>理想电源.78</title>
			<g id="shape79-117" v:mID="79" v:groupContext="shape" v:layerMember="1" transform="translate(6.86994E-06,2.84217E-14)">
				<title>工作表.79</title>
				<path d="M18.43 210.99 C27.37 210.99 34.64 218.26 34.64 227.2 C34.64 236.14 27.37 243.42 18.43 243.42 C9.48 243.42
							 2.21 236.14 2.21 227.2 C2.21 218.26 9.48 210.99 18.43 210.99 ZM18.43 208.78 C8.25 208.78 0 217.03 0
							 227.2 C0 237.38 8.25 245.63 18.43 245.63 C28.6 245.63 36.85 237.38 36.85 227.2 C36.85 217.03 28.6 208.78
							 18.43 208.78 Z" class="st7"/>
			</g>
			<g id="shape80-119" v:mID="80" v:groupContext="shape" v:layerMember="1" transform="translate(0,-1.19487E-05)">
				<title>工作表.80</title>
				<path d="M36.85 227.2 L0 227.2" class="st6"/>
			</g>
		</g>
		<g id="shape85-122" v:mID="85" v:groupContext="shape" transform="translate(355.027,-144.014)">
			<title>工作表.85</title>
			<path d="M68.03 245.63 L68.03 203.73 L2.48 203.73" class="st2"/>
		</g>
		<g id="shape86-127" v:mID="86" v:groupContext="shape" transform="translate(355.027,-72.5238)">
			<title>工作表.86</title>
			<path d="M68.03 208.78 L68.03 245.63 L2.47 244.56" class="st2"/>
		</g>
	</g>
</svg>
